# Blender v2.83.5 OBJ File: ''
# www.blender.org
mtllib bodyPlate.mtl
o ДетальКузова
v -75.993423 0.000000 -65.000000
v -81.438004 0.000000 -58.033211
v -81.438004 3.500000 -58.033211
v -75.993423 3.500000 -65.000000
v -86.245888 0.000000 -50.612709
v -86.245888 3.500000 -50.612709
v -90.379517 0.000000 -42.796532
v -90.379517 3.500000 -42.796532
v -93.806557 0.000000 -34.645760
v -93.806557 3.500000 -34.645760
v -96.500229 0.000000 -26.224140
v -96.500229 3.500000 -26.224140
v -98.439461 0.000000 -17.597500
v -98.439461 3.500000 -17.597500
v -99.609100 0.000000 -8.833278
v -99.609100 3.500000 -8.833278
v -100.000000 0.000000 -0.000000
v -100.000000 3.500000 -0.000000
v -99.609100 0.000000 8.833278
v -99.609100 3.500000 8.833278
v -98.439461 0.000000 17.597500
v -98.439461 3.500000 17.597500
v -96.500229 0.000000 26.224140
v -96.500229 3.500000 26.224140
v -93.806557 0.000000 34.645760
v -93.806557 3.500000 34.645760
v -90.379517 0.000000 42.796532
v -90.379517 3.500000 42.796532
v -86.245888 0.000000 50.612709
v -86.245888 3.500000 50.612709
v -81.438004 0.000000 58.033211
v -81.438004 3.500000 58.033211
v -75.993423 0.000000 65.000000
v -75.993423 3.500000 65.000000
v -70.000000 0.000000 65.000000
v -70.000000 3.500000 65.000000
v -70.000000 0.000000 55.000000
v -70.000000 3.500000 55.000000
v -5.000000 0.000000 55.000000
v -5.000000 3.500000 55.000000
v -5.000000 0.000000 65.000000
v -5.000000 3.500000 65.000000
v 5.000000 0.000000 65.000000
v 5.000000 3.500000 65.000000
v 5.000000 0.000000 55.000000
v 5.000000 3.500000 55.000000
v 70.000000 0.000000 55.000000
v 70.000000 3.500000 55.000000
v 70.000000 0.000000 65.000000
v 70.000000 3.500000 65.000000
v 75.993423 0.000000 65.000000
v 75.993423 3.500000 65.000000
v 81.438004 0.000000 58.033211
v 81.438004 3.500000 58.033211
v 86.245888 0.000000 50.612709
v 86.245888 3.500000 50.612709
v 90.379517 0.000000 42.796532
v 90.379517 3.500000 42.796532
v 93.806557 0.000000 34.645760
v 93.806557 3.500000 34.645760
v 96.500229 0.000000 26.224140
v 96.500229 3.500000 26.224140
v 98.439461 0.000000 17.597500
v 98.439461 3.500000 17.597500
v 99.609100 0.000000 8.833278
v 99.609100 3.500000 8.833278
v 100.000000 0.000000 0.000000
v 100.000000 3.500000 0.000000
v 99.609100 0.000000 -8.833278
v 99.609100 3.500000 -8.833278
v 98.439461 0.000000 -17.597500
v 98.439461 3.500000 -17.597500
v 96.500229 0.000000 -26.224140
v 96.500229 3.500000 -26.224140
v 93.806557 0.000000 -34.645760
v 93.806557 3.500000 -34.645760
v 90.379517 0.000000 -42.796532
v 90.379517 3.500000 -42.796532
v 86.245888 0.000000 -50.612709
v 86.245888 3.500000 -50.612709
v 81.438004 0.000000 -58.033211
v 81.438004 3.500000 -58.033211
v 75.993423 0.000000 -65.000000
v 75.993423 3.500000 -65.000000
v 70.000000 0.000000 -65.000000
v 70.000000 3.500000 -65.000000
v 70.000000 0.000000 -55.000000
v 70.000000 3.500000 -55.000000
v 5.000000 0.000000 -55.000000
v 5.000000 3.500000 -55.000000
v 5.000000 0.000000 -65.000000
v 5.000000 3.500000 -65.000000
v -5.000000 0.000000 -65.000000
v -5.000000 3.500000 -65.000000
v -5.000000 0.000000 -55.000000
v -5.000000 3.500000 -55.000000
v -70.000000 0.000000 -55.000000
v -70.000000 3.500000 -55.000000
v -70.000000 0.000000 -65.000000
v -70.000000 3.500000 -65.000000
v -100.000000 3.500000 -0.000000
v 100.000000 3.500000 0.000000
v -100.000000 0.000000 -0.000000
v 100.000000 0.000000 0.000000
vn -0.7879 0.0000 -0.6158
vn -0.8392 0.0000 -0.5438
vn -0.8840 0.0000 -0.4675
vn -0.9218 0.0000 -0.3876
vn -0.9525 0.0000 -0.3046
vn -0.9757 0.0000 -0.2193
vn -0.9912 0.0000 -0.1323
vn -0.9990 0.0000 -0.0442
vn -0.9990 0.0000 0.0442
vn -0.9912 0.0000 0.1323
vn -0.9757 0.0000 0.2193
vn -0.9525 0.0000 0.3046
vn -0.9218 0.0000 0.3876
vn -0.8840 0.0000 0.4675
vn -0.8392 0.0000 0.5438
vn -0.7879 0.0000 0.6158
vn 0.0000 0.0000 1.0000
vn 1.0000 0.0000 0.0000
vn -1.0000 0.0000 0.0000
vn 0.7879 0.0000 0.6158
vn 0.8392 0.0000 0.5438
vn 0.8840 0.0000 0.4675
vn 0.9218 0.0000 0.3876
vn 0.9525 0.0000 0.3046
vn 0.9757 0.0000 0.2193
vn 0.9912 0.0000 0.1323
vn 0.9990 0.0000 0.0442
vn 0.9990 0.0000 -0.0442
vn 0.9912 0.0000 -0.1323
vn 0.9757 0.0000 -0.2193
vn 0.9525 0.0000 -0.3046
vn 0.9218 0.0000 -0.3876
vn 0.8840 0.0000 -0.4675
vn 0.8392 0.0000 -0.5438
vn 0.7879 0.0000 -0.6158
vn 0.0000 0.0000 -1.0000
vn 0.0000 1.0000 0.0000
vn 0.0000 -1.0000 0.0000
usemtl None
s off
f 1//1 2//1 3//1
f 1//1 3//1 4//1
f 2//2 5//2 6//2
f 2//2 6//2 3//2
f 5//3 7//3 8//3
f 5//3 8//3 6//3
f 7//4 9//4 10//4
f 7//4 10//4 8//4
f 9//5 11//5 12//5
f 9//5 12//5 10//5
f 11//6 13//6 14//6
f 11//6 14//6 12//6
f 13//7 15//7 16//7
f 13//7 16//7 14//7
f 15//8 17//8 18//8
f 15//8 18//8 16//8
f 17//9 19//9 20//9
f 17//9 20//9 18//9
f 19//10 21//10 22//10
f 19//10 22//10 20//10
f 21//11 23//11 24//11
f 21//11 24//11 22//11
f 23//12 25//12 26//12
f 23//12 26//12 24//12
f 25//13 27//13 28//13
f 25//13 28//13 26//13
f 27//14 29//14 30//14
f 27//14 30//14 28//14
f 29//15 31//15 32//15
f 29//15 32//15 30//15
f 31//16 33//16 34//16
f 31//16 34//16 32//16
f 34//17 33//17 35//17
f 34//17 35//17 36//17
f 36//18 35//18 37//18
f 36//18 37//18 38//18
f 38//17 37//17 39//17
f 38//17 39//17 40//17
f 40//19 39//19 41//19
f 40//19 41//19 42//19
f 42//17 41//17 43//17
f 42//17 43//17 44//17
f 44//18 43//18 45//18
f 44//18 45//18 46//18
f 46//17 45//17 47//17
f 46//17 47//17 48//17
f 48//19 47//19 49//19
f 48//19 49//19 50//19
f 50//17 49//17 51//17
f 50//17 51//17 52//17
f 51//20 53//20 54//20
f 51//20 54//20 52//20
f 53//21 55//21 56//21
f 53//21 56//21 54//21
f 55//22 57//22 58//22
f 55//22 58//22 56//22
f 57//23 59//23 60//23
f 57//23 60//23 58//23
f 59//24 61//24 62//24
f 59//24 62//24 60//24
f 61//25 63//25 64//25
f 61//25 64//25 62//25
f 63//26 65//26 66//26
f 63//26 66//26 64//26
f 65//27 67//27 68//27
f 65//27 68//27 66//27
f 67//28 69//28 70//28
f 67//28 70//28 68//28
f 69//29 71//29 72//29
f 69//29 72//29 70//29
f 71//30 73//30 74//30
f 71//30 74//30 72//30
f 73//31 75//31 76//31
f 73//31 76//31 74//31
f 75//32 77//32 78//32
f 75//32 78//32 76//32
f 77//33 79//33 80//33
f 77//33 80//33 78//33
f 79//34 81//34 82//34
f 79//34 82//34 80//34
f 81//35 83//35 84//35
f 81//35 84//35 82//35
f 84//36 83//36 85//36
f 84//36 85//36 86//36
f 86//19 85//19 87//19
f 86//19 87//19 88//19
f 88//36 87//36 89//36
f 88//36 89//36 90//36
f 90//18 89//18 91//18
f 90//18 91//18 92//18
f 92//36 91//36 93//36
f 92//36 93//36 94//36
f 94//19 93//19 95//19
f 94//19 95//19 96//19
f 96//36 95//36 97//36
f 96//36 97//36 98//36
f 98//18 97//18 99//18
f 98//18 99//18 100//18
f 100//36 99//36 1//36
f 100//36 1//36 4//36
f 100//37 4//37 98//37
f 4//37 3//37 98//37
f 3//37 6//37 98//37
f 6//37 8//37 98//37
f 98//37 8//37 96//37
f 8//37 10//37 96//37
f 10//37 12//37 96//37
f 12//37 14//37 96//37
f 14//37 16//37 96//37
f 16//37 101//37 96//37
f 101//37 20//37 96//37
f 20//37 22//37 96//37
f 22//37 24//37 96//37
f 24//37 26//37 96//37
f 26//37 28//37 96//37
f 28//37 30//37 96//37
f 30//37 32//37 96//37
f 32//37 34//37 96//37
f 34//37 38//37 96//37
f 38//37 40//37 96//37
f 42//37 44//37 40//37
f 44//37 46//37 40//37
f 40//37 46//37 96//37
f 46//37 48//37 96//37
f 96//37 48//37 94//37
f 50//37 52//37 48//37
f 52//37 54//37 48//37
f 54//37 56//37 48//37
f 48//37 56//37 94//37
f 56//37 58//37 94//37
f 94//37 90//37 92//37
f 94//37 58//37 90//37
f 58//37 60//37 90//37
f 90//37 60//37 88//37
f 60//37 62//37 88//37
f 88//37 62//37 86//37
f 62//37 64//37 86//37
f 86//37 64//37 84//37
f 64//37 66//37 84//37
f 84//37 66//37 82//37
f 66//37 102//37 82//37
f 82//37 102//37 80//37
f 102//37 70//37 80//37
f 80//37 70//37 78//37
f 70//37 72//37 78//37
f 78//37 72//37 76//37
f 72//37 74//37 76//37
f 38//37 34//37 36//37
f 2//38 1//38 5//38
f 1//38 99//38 5//38
f 5//38 99//38 7//38
f 99//38 97//38 7//38
f 7//38 97//38 9//38
f 97//38 95//38 9//38
f 9//38 95//38 11//38
f 93//38 91//38 95//38
f 91//38 89//38 95//38
f 85//38 83//38 87//38
f 83//38 81//38 87//38
f 81//38 79//38 87//38
f 87//38 79//38 89//38
f 79//38 77//38 89//38
f 89//38 77//38 95//38
f 77//38 75//38 95//38
f 95//38 75//38 11//38
f 75//38 73//38 11//38
f 11//38 73//38 13//38
f 73//38 71//38 13//38
f 13//38 71//38 15//38
f 71//38 69//38 15//38
f 15//38 69//38 103//38
f 69//38 104//38 103//38
f 103//38 104//38 19//38
f 104//38 65//38 19//38
f 19//38 65//38 21//38
f 65//38 63//38 21//38
f 21//38 63//38 23//38
f 63//38 61//38 23//38
f 23//38 61//38 25//38
f 61//38 59//38 25//38
f 25//38 59//38 27//38
f 59//38 57//38 27//38
f 27//38 57//38 29//38
f 57//38 55//38 29//38
f 29//38 37//38 31//38
f 37//38 35//38 31//38
f 31//38 35//38 33//38
f 37//38 29//38 39//38
f 29//38 55//38 39//38
f 39//38 45//38 41//38
f 45//38 43//38 41//38
f 39//38 55//38 45//38
f 55//38 47//38 45//38
f 47//38 55//38 49//38
f 55//38 53//38 49//38
f 49//38 53//38 51//38
